<?xml version="1.0" encoding="utf-8"?>
<!-- Generator: Adobe Illustrator 24.2.0, SVG Export Plug-In . SVG Version: 6.00 Build 0)  -->
<svg version="1.1" id="Ebene_1" xmlns="http://www.w3.org/2000/svg" xmlns:xlink="http://www.w3.org/1999/xlink" x="0px" y="0px"
	 viewBox="0 0 500 500" style="enable-background:new 0 0 500 500;" xml:space="preserve">
<style type="text/css">
	.st0{fill:#FFFFFF;}
	.st1{fill:#E30613;stroke:#FFFFFF;stroke-width:9.7159;stroke-miterlimit:10;}
</style>
<rect x="8.4" y="8.2" width="483.7" height="483.7"/>
<path class="st0" d="M325.9,410.6H174.7c-10.4,0-18.9-8.5-18.9-18.9s8.5-18.9,18.9-18.9h151.2c10.4,0,18.9,8.5,18.9,18.9
	S336.3,410.6,325.9,410.6z"/>
<path class="st0" d="M426.6,318.7c-19.5,0-35.2-15.8-35.2-35.3c0-4.5,0.9-8.9,2.5-12.8c-8-2.7-15.6-4.8-20.1-4.8
	c-35.2,0-35.2,88.2-35.2,88.2l-88.2,0h-88.2c0,0,0-88.2-35.3-88.2c-4.5,0-12.1,2.1-20.1,4.8c1.6,4,2.5,8.3,2.5,12.8
	c0,19.5-15.8,35.3-35.3,35.3c-19.5,0-35.3-15.8-35.3-35.3c0-19.5,15.8-35.2,35.3-35.2c7.7,0,14.9,2.6,20.7,6.8
	c10.4-12.6,22.8-24.5,32.2-24.5c19.7,0,50.8,17.7,70.5,17.7c23,0,38.5-52.3,46.4-88.9c-16.4-3-28.8-17.3-28.8-34.6
	c0-19.5,15.9-35.3,35.3-35.3s35.2,15.8,35.2,35.2c0,17.3-12.4,31.6-28.8,34.6c8,36.6,23.5,88.9,46.5,88.9
	c19.7,0,50.8-17.7,70.5-17.7c9.4,0,21.7,12,32.2,24.5c5.9-4.3,12.9-6.8,20.7-6.8c19.5,0,35.3,15.8,35.3,35.2
	C461.9,302.9,446.2,318.7,426.6,318.7L426.6,318.7z"/>
<g>
	<line class="st0" x1="58" y1="442.3" x2="442.5" y2="57.8"/>
	<path class="st1" d="M58,461.7c-5,0-9.9-1.9-13.7-5.7c-7.6-7.6-7.6-19.9,0-27.5L428.8,44.1c7.6-7.6,19.9-7.6,27.5,0
		s7.6,19.9,0,27.5L71.8,456C68,459.8,63,461.7,58,461.7z"/>
</g>
</svg>
